<?xml version="1.0" encoding="UTF-8"?>
<svg id="Calque_2" data-name="Calque 2" xmlns="http://www.w3.org/2000/svg" viewBox="0 0 128 128">
  <defs>
    <style>
      .cls-1 {
        fill: none;
        stroke: #d4af37;
        stroke-miterlimit: 10;
      }

      .cls-2 {
        fill: #264b56;
      }

      .cls-3 {
        fill: #31a39d;
      }
    </style>
  </defs>
  <g id="Calque_1-2" data-name="Calque 1">
    <g>
      <rect class="cls-2" x=".5" y=".5" width="127" height="127"/>
      <path class="cls-3" d="m102.1.5c0,24.76-.63,26.03-25.4,50.8,24.76-24.76,26.03-25.4,50.8-25.4V.5h-25.4Z"/>
      <line class="cls-1" x1="76.7" y1="51.3" x2=".5" y2="127.5"/>
      <path class="cls-1" d="m.5,127.5C25.26,102.73,25.9,101.46,25.9.5"/>
      <path class="cls-1" d="m51.3.5c0,75.56-.5,76.83-25.4,101.6"/>
      <path class="cls-1" d="m76.7.5c0,50.16-.63,51.43-25.4,76.2"/>
      <path class="cls-1" d="m102.1.5c0,24.76-.63,26.03-25.4,50.8"/>
      <path class="cls-1" d="m.5,127.5c24.77-24.76,26.04-25.4,127-25.4"/>
      <path class="cls-1" d="m127.5,76.7c-75.56,0-76.83.5-101.6,25.4"/>
      <path class="cls-1" d="m127.5,51.3c-50.16,0-51.43.63-76.2,25.4"/>
      <path class="cls-1" d="m127.5,25.9c-24.76,0-26.03.63-50.8,25.4"/>
      <rect class="cls-1" x=".5" y=".5" width="127" height="127"/>
    </g>
  </g>
</svg>